<?xml version="1.0" encoding="UTF-8" standalone="no"?>
<svg
   xmlns:dc="http://purl.org/dc/elements/1.1/"
   xmlns:cc="http://creativecommons.org/ns#"
   xmlns:rdf="http://www.w3.org/1999/02/22-rdf-syntax-ns#"
   xmlns:svg="http://www.w3.org/2000/svg"
   xmlns="http://www.w3.org/2000/svg"
   xmlns:sodipodi="http://sodipodi.sourceforge.net/DTD/sodipodi-0.dtd"
   xmlns:inkscape="http://www.inkscape.org/namespaces/inkscape"
   width="179px"
   height="218px"
   viewBox="0 0 179 218"
   version="1.1"
   id="svg4179"
   inkscape:version="0.91 r13725"
   sodipodi:docname="character1_1.svg">
  <metadata
     id="metadata4198">
    <rdf:RDF>
      <cc:Work
         rdf:about="">
        <dc:format>image/svg+xml</dc:format>
        <dc:type
           rdf:resource="http://purl.org/dc/dcmitype/StillImage" />
        <dc:title>character1</dc:title>
      </cc:Work>
    </rdf:RDF>
  </metadata>
  <sodipodi:namedview
     pagecolor="#ffffff"
     bordercolor="#666666"
     borderopacity="1"
     objecttolerance="10"
     gridtolerance="10"
     guidetolerance="10"
     inkscape:pageopacity="0"
     inkscape:pageshadow="2"
     inkscape:window-width="1920"
     inkscape:window-height="1017"
     id="namedview4196"
     showgrid="false"
     inkscape:zoom="1.0825688"
     inkscape:cx="-193.16102"
     inkscape:cy="109"
     inkscape:window-x="-8"
     inkscape:window-y="-8"
     inkscape:window-maximized="1"
     inkscape:current-layer="svg4179" />
  <!-- Generator: Sketch 44.1 (41455) - http://www.bohemiancoding.com/sketch -->
  <title
     id="title4181">character1</title>
  <desc
     id="desc4183">Created with Sketch.</desc>
  <defs
     id="defs4185" />
  <g
     id="character1">
    <path
       style="fill:#61b1eb;fill-rule:nonzero;stroke:none;stroke-width:1"
       inkscape:connector-curvature="0"
       id="Shape"
       d="m 52.048026,156.0798 116.683644,0 c 0,0 9.72322,0 9.72322,-9.72766 l 0,-77.826862 c 0,-37.609523 -30.47301,-68.0975322 -68.06532,-68.0975322 -37.591195,0 -68.064765,30.4880092 -68.064765,68.0975322 l 0,77.826862 c 0,0 -5.56e-4,9.72766 9.723776,9.72766" />
    <path
       style="fill:#61b1eb;fill-rule:nonzero;stroke:none;stroke-width:1"
       inkscape:connector-curvature="0"
       id="path4192"
       d="m 90.94313,120.59885 -48.61777,0 c -21.844899,0 -32.232847,-11.61189 -37.1013987,-21.35344 C 0.05886466,88.911333 0,78.683875 0,78.254052 0.0226411,76.376711 1.5503072,74.86638 3.4277841,74.865164 c 1.8774769,-0.0012 3.407098,1.507135 3.4321706,3.384445 0.00222,0.196586 0.1143974,9.281736 4.6014403,18.126985 5.844261,11.517486 16.227766,17.358416 30.863965,17.358416 l 48.61777,0 c 1.894747,9.2e-4 3.430256,1.53717 3.430255,3.43192 3.07e-4,1.89487 -1.535381,3.43131 -3.430255,3.43192 m 9.72322,97.2833 c -1.894873,-6.2e-4 -3.430561,-1.53705 -3.430254,-3.43192 l 0,-68.09754 c -0.01573,-1.23601 0.634669,-2.38492 1.702543,-3.00751 1.067871,-0.62259 2.388111,-0.62259 3.455981,0 1.06787,0.62259 1.71827,1.7715 1.70254,3.00751 l 0,68.09754 c 1.5e-4,0.91005 -0.36123,1.78289 -1.00463,2.4265 -0.6434,0.64361 -1.51612,1.00527 -2.42618,1.00542 m 29.17022,0 c -1.89488,-6.2e-4 -3.43056,-1.53705 -3.43026,-3.43192 l 0,-68.09754 c -0.0157,-1.23601 0.63467,-2.38492 1.70255,-3.00751 1.06787,-0.62259 2.3881,-0.62259 3.45598,0 1.06787,0.62259 1.71827,1.7715 1.70254,3.00751 l 0,68.09754 c 1.5e-4,0.91005 -0.36123,1.78289 -1.00463,2.4265 -0.6434,0.64361 -1.51613,1.00527 -2.42618,1.00542" />
    <path
       d="m 71.495578,83.118161 c 0,2.686672 -2.176882,4.863554 -4.860778,4.863554 -1.289843,0 -2.52685,-0.512426 -3.438855,-1.424535 -0.912005,-0.91211 -1.424291,-2.149175 -1.424143,-3.439019 0,-2.686672 2.176882,-4.864665 4.862998,-4.864665 2.683896,0 4.860778,2.177993 4.860778,4.864665 m 68.064772,0 c 0.0265,1.754499 -0.89431,3.38719 -2.40949,4.272184 -1.51517,0.884994 -3.38963,0.884994 -4.90481,0 -1.51517,-0.884994 -2.436,-2.517685 -2.40948,-4.272184 0,-2.686672 2.17688,-4.864665 4.86189,-4.864665 2.685,0 4.86189,2.177993 4.86189,4.864665"
       style="fill:#6d2d57;fill-rule:nonzero;stroke:none;stroke-width:1"
       id="eyes" />
    <path
       id="path4194"
       d="m 100.6658,96.994673 c -4.643649,0 -6.867178,-2.500082 -7.91508,-4.596442 -1.06123,-2.125792 -1.092328,-4.188832 -1.092328,-4.416516 -1e-6,-0.947265 0.767584,-1.715347 1.71485,-1.71596 l 0.0011,0 c 0.944452,9.1e-4 1.710627,0.764851 1.714295,1.709296 0.0011,0.04554 0.03332,1.551029 0.774681,2.976553 0.916289,1.75761 2.48731,2.610593 4.802472,2.610593 2.31571,0 3.88728,-0.852983 4.80191,-2.611703 0.7508,-1.439963 0.77524,-2.962115 0.77635,-2.977109 0.009,-0.941262 0.77354,-1.700196 1.71485,-1.703188 l 0.009,0 c 0.94329,0.0028 1.70653,0.768222 1.70652,1.711518 0,0.09052 -0.10329,9.012958 -9.00851,9.012958"
       style="fill:#6d2d57;fill-rule:nonzero;stroke:none;stroke-width:1"
       inkscape:connector-curvature="0" />
  </g>
</svg>
