<?xml version="1.0" encoding="UTF-8" standalone="no"?>
<svg
   xmlns:dc="http://purl.org/dc/elements/1.1/"
   xmlns:cc="http://creativecommons.org/ns#"
   xmlns:rdf="http://www.w3.org/1999/02/22-rdf-syntax-ns#"
   xmlns:svg="http://www.w3.org/2000/svg"
   xmlns="http://www.w3.org/2000/svg"
   xmlns:sodipodi="http://sodipodi.sourceforge.net/DTD/sodipodi-0.dtd"
   xmlns:inkscape="http://www.inkscape.org/namespaces/inkscape"
   width="140px"
   height="254px"
   viewBox="0 0 140 254"
   version="1.1"
   id="svg4769"
   inkscape:version="0.91 r13725"
   sodipodi:docname="character3_2.svg">
  <metadata
     id="metadata4790">
    <rdf:RDF>
      <cc:Work
         rdf:about="">
        <dc:format>image/svg+xml</dc:format>
        <dc:type
           rdf:resource="http://purl.org/dc/dcmitype/StillImage" />
        <dc:title>character3</dc:title>
      </cc:Work>
    </rdf:RDF>
  </metadata>
  <sodipodi:namedview
     pagecolor="#ffffff"
     bordercolor="#666666"
     borderopacity="1"
     objecttolerance="10"
     gridtolerance="10"
     guidetolerance="10"
     inkscape:pageopacity="0"
     inkscape:pageshadow="2"
     inkscape:window-width="1920"
     inkscape:window-height="1017"
     id="namedview4788"
     showgrid="false"
     inkscape:zoom="2.6279874"
     inkscape:cx="20.59166"
     inkscape:cy="115.8286"
     inkscape:window-x="-8"
     inkscape:window-y="-8"
     inkscape:window-maximized="1"
     inkscape:current-layer="svg4769" />
  <!-- Generator: Sketch 44.1 (41455) - http://www.bohemiancoding.com/sketch -->
  <title
     id="title4771">character3</title>
  <desc
     id="desc4773">Created with Sketch.</desc>
  <defs
     id="defs4775" />
  <g
     id="character3">
    <path
       style="fill:#ffd87d;fill-rule:nonzero;stroke:none;stroke-width:1"
       inkscape:connector-curvature="0"
       id="Shape"
       d="m 49.933554,253.2422 c -1.94018,-6.3e-4 -3.512586,-1.5738 -3.512272,-3.51398 l 0,-69.72574 c 0,-1.94009 1.572753,-3.51284 3.512841,-3.51284 1.940089,0 3.512841,1.57275 3.512841,3.51284 l 0,69.72574 c 0,1.94049 -1.572915,3.51366 -3.51341,3.51398" />
    <path
       style="fill:#ffd87d;fill-rule:nonzero;stroke:none;stroke-width:1"
       inkscape:connector-curvature="0"
       id="path4782"
       d="M 0.15390239,70.431747 69.845529,0.7054356 139.53943,70.431747 l 0,49.804103 c 0,0 0,69.72802 -69.693332,69.72802 l -69.69219561,0 0,-119.532123 z" />
    <path
       id="rightEye"
       d="m 109.67061,107.76382 c 0,0.45097 -2.22949,0.81656 -4.97813,0.81656 -2.74977,0 -4.978705,-0.36559 -4.978705,-0.81656 -0.01914,-0.29366 0.925525,-0.56636 2.473725,-0.71411 1.5482,-0.14774 3.4612,-0.14774 5.00939,0 1.5482,0.14775 2.49287,0.42045 2.47372,0.71411"
       style="fill:#6d2d57;fill-rule:nonzero;stroke:none;stroke-width:1"
       inkscape:connector-curvature="0" />
    <path
       id="leftEye"
       d="m 39.977851,107.76382 c 0,0.45097 -2.228931,0.81656 -4.976998,0.81656 -2.749773,0 -4.978705,-0.36559 -4.978705,-0.81656 -3.01e-4,-0.2165 0.524106,-0.42415 1.457827,-0.57725 0.933721,-0.15311 2.200246,-0.23913 3.520878,-0.23913 2.748067,0 4.976998,0.36541 4.976998,0.81638"
       style="fill:#6d2d57;fill-rule:nonzero;stroke:none;stroke-width:1"
       inkscape:connector-curvature="0" />
    <path
       id="path4784"
       d="m 69.845529,121.99341 c -4.754674,0 -7.030799,-2.55986 -8.104326,-4.70635 -1.087172,-2.17661 -1.118445,-4.28841 -1.118445,-4.52211 0.02751,-0.9487 0.80346,-1.70407 1.752553,-1.70607 0.949093,-0.002 1.728221,0.75011 1.759719,1.69868 0.0011,0.0466 0.03412,1.58868 0.793204,3.04829 0.938767,1.79906 2.545644,2.67358 4.917295,2.67358 2.37222,0 3.980234,-0.87452 4.917295,-2.67415 0.769322,-1.47439 0.794341,-3.03294 0.794341,-3.04886 0.0096,-0.96367 0.792133,-1.74059 1.755852,-1.74334 l 0.0091,0 c 0.965625,0.003 1.747013,0.78624 1.747323,1.75187 0,0.0932 -0.104624,9.22846 -9.223909,9.22846"
       style="fill:#6d2d57;fill-rule:nonzero;stroke:none;stroke-width:1"
       inkscape:connector-curvature="0" />
    <path
       style="fill:#ffd87d;fill-rule:nonzero;stroke:none;stroke-width:1"
       inkscape:connector-curvature="0"
       id="path4786"
       d="m 79.804644,243.28195 c -1.629766,-3.6e-4 -3.045542,-1.12094 -3.420196,-2.70706 -0.374655,-1.58611 0.390083,-3.22174 1.847434,-3.95131 0.172288,-0.0876 17.969621,-9.28929 17.969621,-26.73864 0,-17.54715 -17.79051,-26.64938 -17.970189,-26.73978 -1.735366,-0.86853 -2.43861,-2.97902 -1.571055,-4.71488 0.416309,-0.83383 1.147003,-1.46798 2.031138,-1.76276 0.884135,-0.29478 1.849188,-0.22602 2.682596,0.19114 0.891004,0.44636 21.852627,11.18332 21.852627,33.02628 0,21.84239 -20.961623,32.57822 -21.853764,33.02457 -0.486604,0.24457 -1.023605,0.3721 -1.568212,0.37244" />
  </g>
</svg>
