<?xml version="1.0" encoding="UTF-8" standalone="no"?>
<svg
   xmlns:dc="http://purl.org/dc/elements/1.1/"
   xmlns:cc="http://creativecommons.org/ns#"
   xmlns:rdf="http://www.w3.org/1999/02/22-rdf-syntax-ns#"
   xmlns:svg="http://www.w3.org/2000/svg"
   xmlns="http://www.w3.org/2000/svg"
   xmlns:sodipodi="http://sodipodi.sourceforge.net/DTD/sodipodi-0.dtd"
   xmlns:inkscape="http://www.inkscape.org/namespaces/inkscape"
   width="179px"
   height="303px"
   viewBox="0 0 179 303"
   version="1.1"
   id="svg4140"
   inkscape:version="0.91 r13725"
   sodipodi:docname="character2_1.svg">
  <metadata
     id="metadata4161">
    <rdf:RDF>
      <cc:Work
         rdf:about="">
        <dc:format>image/svg+xml</dc:format>
        <dc:type
           rdf:resource="http://purl.org/dc/dcmitype/StillImage" />
        <dc:title>character2</dc:title>
      </cc:Work>
    </rdf:RDF>
  </metadata>
  <sodipodi:namedview
     pagecolor="#ffffff"
     bordercolor="#666666"
     borderopacity="1"
     objecttolerance="10"
     gridtolerance="10"
     guidetolerance="10"
     inkscape:pageopacity="0"
     inkscape:pageshadow="2"
     inkscape:window-width="1920"
     inkscape:window-height="1017"
     id="namedview4159"
     showgrid="false"
     inkscape:zoom="2.2029993"
     inkscape:cx="-85.914907"
     inkscape:cy="167.54352"
     inkscape:window-x="-8"
     inkscape:window-y="-8"
     inkscape:window-maximized="1"
     inkscape:current-layer="svg4140" />
  <!-- Generator: Sketch 44.1 (41455) - http://www.bohemiancoding.com/sketch -->
  <title
     id="title4142">character2</title>
  <desc
     id="desc4144">Created with Sketch.</desc>
  <defs
     id="defs4146" />
  <g
     id="character2">
    <path
       style="fill:#84e7ac;fill-rule:nonzero;stroke:none;stroke-width:1"
       inkscape:connector-curvature="0"
       id="Shape"
       d="m 36.374895,234.48736 106.447935,0 c 0,0 10.64498,0.001 10.64498,-10.64923 l 0,-159.749416 L 89.597951,0.19028427 25.729918,64.088714 l 0,159.749416 c 0,0 0,10.64923 10.644977,10.64923" />
    <path
       style="fill:#84e7ac;fill-rule:nonzero;stroke:none;stroke-width:1"
       inkscape:connector-curvature="0"
       id="path4153"
       d="m 68.309215,302.14467 c -0.996271,-1.7e-4 -1.951673,-0.39609 -2.656028,-1.10067 -0.704356,-0.70458 -1.099968,-1.66011 -1.099807,-2.65638 l 0,-74.54888 c -0.01722,-1.35311 0.694795,-2.61087 1.863836,-3.29244 1.169042,-0.68157 2.614348,-0.68157 3.783389,0 1.169042,0.68157 1.881052,1.93933 1.863836,3.29244 l 0,74.54888 c 3.36e-4,2.07438 -1.680838,3.75638 -3.755226,3.75705 m 42.578685,0 c -0.99627,-1.7e-4 -1.95167,-0.39609 -2.65602,-1.10067 -0.70436,-0.70458 -1.09997,-1.66011 -1.09981,-2.65638 l 0,-74.54888 c -0.0172,-1.35311 0.69479,-2.61087 1.86383,-3.29244 1.16905,-0.68157 2.61435,-0.68157 3.78339,0 1.16905,0.68157 1.88106,1.93933 1.86384,3.29244 l 0,74.54888 c 3.4e-4,2.07438 -1.68084,3.75638 -3.75523,3.75705" />
    <path
       d="m 132.17785,90.713921 c 1.7e-4,1.412095 -0.56063,2.766418 -1.55902,3.765035 -0.99839,0.998616 -2.35258,1.559723 -3.76468,1.559884 -2.93877,0 -5.32188,-2.383112 -5.32188,-5.324919 0,-2.940591 2.38311,-5.325528 5.32188,-5.325528 2.93938,0 5.3237,2.384937 5.3237,5.325528 m -74.513003,0 c 0.02903,1.920714 -0.979033,3.708081 -2.63775,4.676917 -1.658718,0.968835 -3.710759,0.968835 -5.369477,0 -1.658717,-0.968836 -2.666781,-2.756203 -2.637749,-4.676917 0,-2.940591 2.383112,-5.325528 5.322488,-5.325528 2.939375,0 5.322488,2.384937 5.322488,5.325528"
       style="fill:#6d2d57;fill-rule:nonzero;stroke:none;stroke-width:1"
       id="eyes" />
    <path
       id="path4155"
       d="m 100.24353,97.917366 -21.289339,0 c -1.037481,0 -1.878525,-0.841045 -1.878525,-1.878526 0,-1.03748 0.841044,-1.878525 1.878525,-1.878525 l 21.289339,0 c 1.03749,0 1.87853,0.841045 1.87853,1.878525 0,1.037481 -0.84104,1.878526 -1.87853,1.878526"
       style="fill:#6d2d57;fill-rule:nonzero;stroke:none;stroke-width:1"
       inkscape:connector-curvature="0" />
    <path
       style="fill:#84e7ac;fill-rule:nonzero;stroke:none;stroke-width:1"
       inkscape:connector-curvature="0"
       id="path4157"
       d="m 4.4399662,216.94534 c -2.0743884,-6.7e-4 -3.75556237,-1.68266 -3.75522654,-3.75705 l 0,-31.95013 c 0,-18.42292 9.81210234,-27.19849 18.04356834,-31.31604 8.675869,-4.34067 17.283648,-4.39052 17.646587,-4.39052 2.074388,6.7e-4 3.755562,1.68266 3.755226,3.75705 6e-6,2.0714 -1.676532,3.75202 -3.747931,3.75705 -0.118548,10e-4 -7.42899,0.0912 -14.51024,3.70598 -9.074674,4.63248 -13.6761493,12.87003 -13.6761493,24.48648 l 0,31.94952 c 3.359e-4,2.07439 -1.6808381,3.75638 -3.7552265,3.75705 m 170.3159658,6.1e-4 c -0.99627,-1.6e-4 -1.95167,-0.39608 -2.65602,-1.10066 -0.70436,-0.70459 -1.09997,-1.66012 -1.09981,-2.65639 l 0,-31.95013 c 0,-11.61645 -4.60148,-19.854 -13.67676,-24.48648 -7.10374,-3.62574 -14.4385,-3.70538 -14.51145,-3.70538 -2.07209,-0.0107 -3.74523,-1.69527 -3.74185,-3.76738 0.003,-2.06962 1.68134,-3.74599 3.75097,-3.74732 0.36233,0 8.97071,0.0498 17.64719,4.39052 8.23086,4.11755 18.04357,12.89312 18.04357,31.31604 l 0,31.94952 c 1.6e-4,0.99627 -0.39545,1.9518 -1.09981,2.65639 -0.70435,0.70458 -1.65976,1.1005 -2.65603,1.10066" />
  </g>
</svg>
